HIERARCHY
ROOT Hips
{
	OFFSET 0.000000 0.000000 0.000000
	CHANNELS 6 Xposition Yposition Zposition Zrotation Yrotation Xrotation 
	JOINT LHipJoint
	{
		OFFSET 0.000000 0.000000 0.000000
		CHANNELS 3 Zrotation Yrotation Xrotation
		JOINT LeftUpLeg
		{
			OFFSET 1.363060 -1.794630 0.839290
			CHANNELS 3 Zrotation Yrotation Xrotation
			JOINT LeftLeg
			{
				OFFSET 2.448110 -6.726130 0.000000
				CHANNELS 3 Zrotation Yrotation Xrotation
				JOINT LeftFoot
				{
					OFFSET 2.562200 -7.039590 0.000000
					CHANNELS 3 Zrotation Yrotation Xrotation
					JOINT LeftToeBase
					{
						OFFSET 0.157640 -0.433110 2.322550
						CHANNELS 3 Zrotation Yrotation Xrotation
						End Site
						{
							OFFSET 0.000000 0.000000 0.000000
						}
					}
				}
			}
		}
	}
	JOINT RHipJoint
	{
		OFFSET 0.000000 0.000000 0.000000
		CHANNELS 3 Zrotation Yrotation Xrotation
		JOINT RightUpLeg
		{
			OFFSET -1.305520 -1.794630 0.839290
			CHANNELS 3 Zrotation Yrotation Xrotation
			JOINT RightLeg
			{
				OFFSET -2.542530 -6.985550 0.000000
				CHANNELS 3 Zrotation Yrotation Xrotation
				JOINT RightFoot
				{
					OFFSET -2.568260 -7.056230 0.000000
					CHANNELS 3 Zrotation Yrotation Xrotation
					JOINT RightToeBase
					{
						OFFSET -0.164730 -0.452590 2.363150
						CHANNELS 3 Zrotation Yrotation Xrotation
						End Site
						{
							OFFSET 0.000000 0.000000 0.000000
						}
					}
				}
			}
		}
	}
}
MOTION
Frames: 22
Frame Time: 0.008333
1.055415 16.767287 0.567574 30.161727 82.886694 37.386607 -8.944769 1.086485 4.130149 -14.713784 -0.301881 -34.336864 -2.723777 -0.124403 14.149592 0.139622 2.897884 7.921735 1.305699 0.000000 -19.016300 11.117441 -5.315129 1.490933 1.918079 -4.266410 9.519993 1.317029 -1.985501 21.000141 0.598798 7.588809 5.270760 1.435500 0.000001 -73.459001
1.226758 16.800529 0.562106 31.243552 82.648669 38.307093 -8.843180 1.179247 4.139134 -15.046117 -0.389532 -33.590517 -2.736987 -0.133503 14.510696 0.178754 3.082297 7.086267 1.298800 -0.000000 -18.811000 11.351007 -5.378948 1.488712 1.110241 -4.599576 8.323175 1.042277 -2.236061 23.662692 0.539822 8.050097 7.678418 1.884000 0.000000 -75.562499
1.393013 16.834161 0.554412 31.968960 82.358055 38.870201 -8.758899 1.266989 4.135593 -15.369037 -0.414723 -32.766997 -2.761183 -0.155866 14.715751 0.216891 3.240344 6.209414 1.275300 0.000000 -18.672600 11.571590 -5.410883 1.477464 0.298961 -4.968197 6.976094 0.754765 -2.463541 26.493157 0.444260 8.521408 10.239124 2.412200 -0.000000 -76.932300
1.554136 16.867403 0.544713 32.362874 82.023985 39.105727 -8.693039 1.350221 4.114892 -15.687555 -0.355684 -31.890330 -2.794271 -0.188177 14.779232 0.252012 3.366490 5.345197 1.238500 0.000000 -18.565100 11.776178 -5.407247 1.460687 -0.490524 -5.345451 5.500001 0.464283 -2.661797 29.453815 0.308003 8.924040 12.890358 2.988000 -0.000000 -77.444899
1.710230 16.899548 0.533450 32.497675 81.656577 39.088660 -8.642181 1.430255 4.074931 -16.008079 -0.205341 -30.978292 -2.834430 -0.227844 14.715009 0.282787 3.463013 4.538168 1.193900 0.000000 -18.457800 11.966013 -5.365642 1.438883 -1.243917 -5.717399 3.917457 0.182073 -2.828665 32.507437 0.132770 9.176235 15.547486 3.556599 0.000000 -77.055600
1.861498 16.930108 0.521015 32.431368 81.268068 38.877117 -8.604710 1.507693 4.013839 -16.330410 0.042765 -30.050198 -2.879371 -0.271798 14.547252 0.307572 3.525740 3.814393 1.144499 0.000000 -18.325900 12.139342 -5.286409 1.411720 -1.941339 -6.068969 2.257646 -0.081006 -2.966306 35.611713 -0.075129 9.184436 18.110173 4.038300 0.000000 -75.821801
2.008248 16.958760 0.507876 32.236442 80.870192 38.542429 -8.577351 1.583087 3.932190 -16.653169 0.381489 -29.118672 -2.927235 -0.317657 14.298730 0.325631 3.554980 3.185616 1.093200 -0.000000 -18.156300 12.296432 -5.172281 1.376895 -2.571957 -6.396272 0.548150 -0.317629 -3.080815 38.727428 -0.306479 8.862431 20.470944 4.342600 0.000000 -73.923900
2.150858 16.985353 0.494309 31.962049 80.476032 38.129872 -8.559261 1.656037 3.831030 -16.969001 0.800974 -28.193669 -2.975925 -0.363023 13.996620 0.336486 3.547030 2.646239 1.040500 0.000000 -17.944200 12.435425 -5.028360 1.331903 -3.122770 -6.695720 -1.181938 -0.525187 -3.180524 41.816409 -0.551797 8.135767 22.523161 4.381499 0.000000 -71.632400
2.289777 17.009930 0.480482 31.637759 80.099213 37.666829 -8.551099 1.725441 3.712109 -17.265873 1.287808 -27.285040 -3.023357 -0.405703 13.670502 0.339931 3.495500 2.178097 0.984700 0.000001 -17.695600 12.553985 -4.861291 1.274621 -3.580112 -6.965163 -2.907895 -0.705799 -3.273992 44.845350 -0.802891 6.960043 24.167667 4.091800 0.000000 -69.221000
2.425504 17.032535 0.467022 31.374169 79.744426 37.263659 -8.541872 1.791819 3.587975 -17.547389 1.773780 -26.374498 -3.069085 -0.447848 13.307926 0.341520 3.443238 1.772830 0.934600 0.000000 -17.430900 12.661919 -4.673720 1.200798 -3.970071 -7.228708 -4.625314 -0.865903 -3.368328 47.795265 -1.055380 5.341581 25.340064 3.460800 -0.000001 -66.910300
2.558491 17.053462 0.453481 31.107697 79.428158 36.855621 -8.541784 1.852238 3.456745 -17.788257 2.267506 -25.481915 -3.110159 -0.486050 12.955270 0.339165 3.358898 1.390678 0.880900 -0.000000 -17.158800 12.748530 -4.474414 1.111819 -4.257588 -7.468119 -6.309975 -1.011499 -3.468541 50.636318 -1.303616 3.315580 25.960984 2.512100 -0.000000 -64.790300
2.689193 17.072917 0.439996 30.869323 79.157053 36.475805 -8.547989 1.906191 3.326921 -17.983382 2.726446 -24.600747 -3.145604 -0.521257 12.614343 0.336130 3.261538 1.012059 0.826100 0.000000 -16.896300 12.816593 -4.267360 1.007107 -4.449945 -7.693839 -7.960280 -1.149286 -3.577072 53.351809 -1.544283 0.977513 25.997894 1.330300 0.000000 -62.845600
2.818036 17.091089 0.426495 30.660157 78.937816 36.128089 -8.560719 1.953061 3.204352 -18.126106 3.124137 -23.729828 -3.174497 -0.553888 12.291019 0.334206 3.158741 0.618322 0.770000 0.000000 -16.656400 12.866074 -4.056869 0.888043 -4.547212 -7.909318 -9.574791 -1.283848 -3.693998 55.922777 -1.773434 -1.541613 25.444829 0.036800 0.000001 -60.984300
2.945387 17.108115 0.412951 30.480593 78.775240 35.816447 -8.579814 1.992683 3.094167 -18.213626 3.438448 -22.866948 -3.196361 -0.584652 11.984877 0.334919 3.058970 0.198866 0.713500 -0.000000 -16.449300 12.897371 -3.846447 0.756871 -4.552234 -8.117370 -11.154532 -1.417141 -3.817438 58.330136 -1.986332 -4.087730 24.332253 -1.229700 0.000000 -59.065600
3.071671 17.124163 0.399184 30.305329 78.673526 35.521044 -8.608338 2.025783 2.998433 -18.243172 3.672675 -22.023150 -3.211160 -0.613051 11.706062 0.337304 2.952272 -0.252987 0.654700 0.000000 -16.273299 12.908490 -3.640340 0.619150 -4.460711 -8.314724 -12.704403 -1.548391 -3.943278 60.555117 -2.177609 -6.509216 22.727373 -2.341200 0.000000 -56.938000
3.197014 17.139071 0.385554 30.179571 78.631949 35.284863 -8.640178 2.053371 2.921160 -18.226447 3.801359 -21.175247 -3.219665 -0.641281 11.427777 0.343805 2.863357 -0.726118 0.598000 0.000000 -16.134600 12.905128 -3.438629 0.476330 -4.296713 -8.508364 -14.218677 -1.674052 -4.067622 62.575888 -2.342350 -8.670548 20.746389 -3.201500 -0.000000 -54.644200
3.321820 17.153055 0.371806 30.058559 78.652318 35.070094 -8.681108 2.077315 2.860187 -18.162596 3.859342 -20.348989 -3.222695 -0.667628 11.167154 0.350436 2.762449 -1.215787 0.540000 -0.000000 -16.019600 12.883469 -3.245224 0.336632 -4.052015 -8.690645 -15.707426 -1.789612 -4.184785 64.380559 -2.474081 -10.471808 18.502308 -3.761700 -0.000000 -51.992000
3.446297 17.165972 0.358173 29.959164 78.732416 34.892838 -8.729134 2.099608 2.814413 -18.061909 3.859594 -19.541834 -3.221773 -0.692395 10.915162 0.355882 2.645829 -1.707176 0.482100 0.000000 -15.920000 12.846288 -3.060330 0.204544 -3.741486 -8.862457 -17.169381 -1.889721 -4.290133 65.954314 -2.568657 -11.854759 16.140931 -4.024000 0.000001 -49.103400
3.570607 17.177816 0.344903 29.895853 78.869078 34.766054 -8.783085 2.122301 2.781834 -17.933482 3.820811 -18.752511 -3.218397 -0.715695 10.663202 0.358417 2.507074 -2.183778 0.425199 0.000000 -15.827300 12.795688 -2.883859 0.083655 -3.378824 -9.025773 -18.602813 -1.969909 -4.380138 67.288010 -2.622539 -12.796865 13.792476 -4.028600 0.000000 -46.039500
3.694916 17.188539 0.332196 29.879054 79.058531 34.698423 -8.842421 2.147295 2.759165 -17.785281 3.768899 -17.984405 -3.214253 -0.737207 10.409765 0.355604 2.332597 -2.633214 0.369800 0.000000 -15.732000 12.733373 -2.715467 -0.022483 -2.975221 -9.181472 -20.005741 -2.027084 -4.452042 68.374687 -2.634830 -13.311719 11.577000 -3.841700 -0.000000 -42.984000
3.819394 17.198115 0.320289 29.927556 79.295886 34.705528 -8.906001 2.175943 2.743258 -17.624074 3.723896 -17.235831 -3.210796 -0.757008 10.149516 0.345879 2.114578 -3.045299 0.316800 -0.000000 -15.629600 12.661383 -2.554178 -0.112198 -2.542732 -9.331153 -21.373232 -2.059937 -4.504460 69.210286 -2.606713 -13.435597 9.584971 -3.535000 -0.000001 -40.122000
3.944122 17.206579 0.309378 30.056102 79.575943 34.798555 -8.973115 2.209039 2.731060 -17.454192 3.703285 -16.504770 -3.209144 -0.775180 9.879886 0.328100 1.845882 -3.415449 0.266500 -0.000000 -15.519400 12.581274 -2.399222 -0.184706 -2.090720 -9.475770 -22.699200 -2.068677 -4.537011 69.793709 -2.541637 -13.220600 7.874792 -3.172000 -0.000000 -37.640000
